<?xml version="1.0" encoding="UTF-8"?>
<svg xmlns="http://www.w3.org/2000/svg" width="725" height="725" viewBox="0 0 725 725" role="img" aria-label="Kat logo">
  <path d="M 368.00 609.50 L 357.00 609.50 L 343.00 605.50 L 299.00 588.50 L 246.00 565.50 L 194.00 539.50 L 91.00 556.50 L 91.00 554.50 L 157.50 518.00 L 139.00 507.50 L 34.50 522.00 L 99.50 485.00 L 47.00 451.50 L 29.50 437.00 L 74.50 334.00 L 74.50 128.00 L 81.00 116.50 L 94.00 113.50 L 108.00 119.50 L 282.00 238.50 L 345.00 231.50 L 398.00 232.50 L 442.00 238.50 L 618.00 118.50 L 627.00 114.50 L 638.00 114.50 L 646.50 121.00 L 648.50 126.00 L 648.50 330.00 L 653.50 346.00 L 694.50 437.00 L 689.00 443.50 L 625.50 485.00 L 689.50 522.00 L 585.00 507.50 L 566.50 518.00 L 633.00 554.50 L 633.00 556.50 L 553.00 542.50 L 529.00 540.50 L 442.00 581.50 L 368.00 609.50 Z M 363.50 569.00 L 419.00 548.50 L 492.00 514.50 L 565.00 474.50 L 643.50 425.00 L 598.50 326.00 L 603.50 182.00 L 601.00 179.50 L 595.00 180.50 L 467.00 286.50 L 439.00 279.50 L 385.00 272.50 L 326.00 273.50 L 257.00 285.50 L 129.00 180.50 L 123.00 178.50 L 120.50 182.00 L 120.50 192.00 L 125.50 326.00 L 81.50 425.00 L 126.00 454.50 L 219.00 507.50 L 308.00 549.50 L 349.00 565.50 L 363.50 569.00 Z M 184.00 440.50 L 178.00 439.50 L 175.50 436.00 L 172.50 426.00 L 175.00 418.50 L 243.50 393.00 L 169.00 360.50 L 165.50 354.00 L 173.00 337.50 L 179.00 337.50 L 199.00 346.50 L 284.00 385.50 L 293.50 392.00 L 293.50 399.00 L 289.00 402.50 L 184.00 440.50 Z M 546.00 440.50 L 537.00 439.50 L 435.00 402.50 L 432.50 394.00 L 436.00 389.50 L 541.00 342.50 L 551.00 340.50 L 554.50 343.00 L 558.50 353.00 L 558.50 360.00 L 556.00 362.50 L 481.50 394.00 L 550.00 419.50 L 552.50 425.00 L 546.00 440.50 Z M 402.00 439.50 L 322.00 439.50 L 314.50 433.00 L 314.50 422.00 L 321.00 415.50 L 403.00 415.50 L 409.50 421.00 L 409.50 434.00 L 402.00 439.50 Z" fill="#f6f8fa" fill-rule="evenodd"/>
</svg>
